<mxfile host="Electron" modified="2024-01-22T00:56:57.693Z" agent="Mozilla/5.0 (Windows NT 10.0; Win64; x64) AppleWebKit/537.36 (KHTML, like Gecko) draw.io/22.1.21 Chrome/120.0.6099.109 Electron/28.1.0 Safari/537.36" etag="pDlVxhmWCLaPRfichUhH" version="22.1.21" type="device">
  <diagram name="Page-1" id="vQgGLVUvv_Mbf1YJGMmc">
    <mxGraphModel dx="1050" dy="629" grid="1" gridSize="10" guides="1" tooltips="1" connect="1" arrows="1" fold="1" page="1" pageScale="1" pageWidth="850" pageHeight="1100" math="0" shadow="0">
      <root>
        <mxCell id="0" />
        <mxCell id="1" parent="0" />
        <mxCell id="kG6o4c0gzeUAghqNb9E0-35" value="Admin" style="shape=umlActor;verticalLabelPosition=bottom;verticalAlign=top;html=1;outlineConnect=0;" parent="1" vertex="1">
          <mxGeometry x="770" y="395" width="30" height="60" as="geometry" />
        </mxCell>
        <mxCell id="kG6o4c0gzeUAghqNb9E0-36" value="Đăng nhập" style="ellipse;whiteSpace=wrap;html=1;" parent="1" vertex="1">
          <mxGeometry x="610" y="400" width="120" height="50" as="geometry" />
        </mxCell>
        <mxCell id="kG6o4c0gzeUAghqNb9E0-37" value="Quản lý tài khoản" style="ellipse;whiteSpace=wrap;html=1;" parent="1" vertex="1">
          <mxGeometry x="440" y="270" width="120" height="50" as="geometry" />
        </mxCell>
        <mxCell id="kG6o4c0gzeUAghqNb9E0-38" value="Quản lý sản phẩm" style="ellipse;whiteSpace=wrap;html=1;" parent="1" vertex="1">
          <mxGeometry x="440" y="360" width="120" height="50" as="geometry" />
        </mxCell>
        <mxCell id="kG6o4c0gzeUAghqNb9E0-39" value="Quản lý hóa đơn" style="ellipse;whiteSpace=wrap;html=1;" parent="1" vertex="1">
          <mxGeometry x="440" y="460" width="120" height="50" as="geometry" />
        </mxCell>
        <mxCell id="kG6o4c0gzeUAghqNb9E0-41" value="Quản lý ví dịch vụ" style="ellipse;whiteSpace=wrap;html=1;" parent="1" vertex="1">
          <mxGeometry x="500" y="560" width="120" height="50" as="geometry" />
        </mxCell>
        <mxCell id="kG6o4c0gzeUAghqNb9E0-42" value="&amp;lt;&amp;lt;include&amp;gt;&amp;gt;" style="html=1;verticalAlign=bottom;labelBackgroundColor=none;endArrow=open;endFill=0;dashed=1;rounded=0;exitX=1;exitY=0.5;exitDx=0;exitDy=0;entryX=0.5;entryY=0;entryDx=0;entryDy=0;" parent="1" source="kG6o4c0gzeUAghqNb9E0-37" target="kG6o4c0gzeUAghqNb9E0-36" edge="1">
          <mxGeometry width="160" relative="1" as="geometry">
            <mxPoint x="590" y="220" as="sourcePoint" />
            <mxPoint x="750" y="220" as="targetPoint" />
            <Array as="points">
              <mxPoint x="640" y="295" />
            </Array>
          </mxGeometry>
        </mxCell>
        <mxCell id="kG6o4c0gzeUAghqNb9E0-43" value="&amp;lt;&amp;lt;include&amp;gt;&amp;gt;" style="html=1;verticalAlign=bottom;labelBackgroundColor=none;endArrow=open;endFill=0;dashed=1;rounded=0;exitX=1;exitY=0.5;exitDx=0;exitDy=0;entryX=0;entryY=0.5;entryDx=0;entryDy=0;" parent="1" source="kG6o4c0gzeUAghqNb9E0-38" target="kG6o4c0gzeUAghqNb9E0-36" edge="1">
          <mxGeometry width="160" relative="1" as="geometry">
            <mxPoint x="700" y="250" as="sourcePoint" />
            <mxPoint x="860" y="250" as="targetPoint" />
            <Array as="points">
              <mxPoint x="600" y="385" />
            </Array>
          </mxGeometry>
        </mxCell>
        <mxCell id="kG6o4c0gzeUAghqNb9E0-44" value="&amp;lt;&amp;lt;include&amp;gt;&amp;gt;" style="html=1;verticalAlign=bottom;labelBackgroundColor=none;endArrow=open;endFill=0;dashed=1;rounded=0;exitX=0.988;exitY=0.45;exitDx=0;exitDy=0;exitPerimeter=0;entryX=0.027;entryY=0.76;entryDx=0;entryDy=0;entryPerimeter=0;" parent="1" source="kG6o4c0gzeUAghqNb9E0-39" target="kG6o4c0gzeUAghqNb9E0-36" edge="1">
          <mxGeometry width="160" relative="1" as="geometry">
            <mxPoint x="580" y="450" as="sourcePoint" />
            <mxPoint x="740" y="450" as="targetPoint" />
            <Array as="points">
              <mxPoint x="600" y="480" />
            </Array>
          </mxGeometry>
        </mxCell>
        <mxCell id="kG6o4c0gzeUAghqNb9E0-45" value="&amp;lt;&amp;lt;include&amp;gt;&amp;gt;" style="html=1;verticalAlign=bottom;labelBackgroundColor=none;endArrow=open;endFill=0;dashed=1;rounded=0;exitX=1;exitY=0.5;exitDx=0;exitDy=0;" parent="1" source="kG6o4c0gzeUAghqNb9E0-41" edge="1">
          <mxGeometry width="160" relative="1" as="geometry">
            <mxPoint x="610" y="500" as="sourcePoint" />
            <mxPoint x="670" y="450" as="targetPoint" />
            <Array as="points">
              <mxPoint x="640" y="585" />
            </Array>
          </mxGeometry>
        </mxCell>
        <mxCell id="kG6o4c0gzeUAghqNb9E0-46" value="" style="endArrow=none;html=1;rounded=0;exitX=1;exitY=0.5;exitDx=0;exitDy=0;" parent="1" source="kG6o4c0gzeUAghqNb9E0-36" target="kG6o4c0gzeUAghqNb9E0-35" edge="1">
          <mxGeometry width="50" height="50" relative="1" as="geometry">
            <mxPoint x="690" y="390" as="sourcePoint" />
            <mxPoint x="770" y="420" as="targetPoint" />
          </mxGeometry>
        </mxCell>
        <mxCell id="kG6o4c0gzeUAghqNb9E0-48" value="Xem danh sách" style="ellipse;whiteSpace=wrap;html=1;" parent="1" vertex="1">
          <mxGeometry x="580" y="170" width="120" height="50" as="geometry" />
        </mxCell>
        <mxCell id="kG6o4c0gzeUAghqNb9E0-49" value="Tìm kiếm tài khoản" style="ellipse;whiteSpace=wrap;html=1;" parent="1" vertex="1">
          <mxGeometry x="480" y="110" width="120" height="50" as="geometry" />
        </mxCell>
        <mxCell id="kG6o4c0gzeUAghqNb9E0-50" value="Thêm tài khoản" style="ellipse;whiteSpace=wrap;html=1;" parent="1" vertex="1">
          <mxGeometry x="340" y="110" width="120" height="50" as="geometry" />
        </mxCell>
        <mxCell id="kG6o4c0gzeUAghqNb9E0-51" value="Sửa tài khoản" style="ellipse;whiteSpace=wrap;html=1;" parent="1" vertex="1">
          <mxGeometry x="250" y="180" width="120" height="50" as="geometry" />
        </mxCell>
        <mxCell id="kG6o4c0gzeUAghqNb9E0-52" value="Xóa tài khoản" style="ellipse;whiteSpace=wrap;html=1;" parent="1" vertex="1">
          <mxGeometry x="180" y="260" width="120" height="50" as="geometry" />
        </mxCell>
        <mxCell id="kG6o4c0gzeUAghqNb9E0-53" value="Xem danh sách" style="ellipse;whiteSpace=wrap;html=1;" parent="1" vertex="1">
          <mxGeometry x="130" y="330" width="120" height="50" as="geometry" />
        </mxCell>
        <mxCell id="kG6o4c0gzeUAghqNb9E0-54" value="Tìm kiếm sản phẩm" style="ellipse;whiteSpace=wrap;html=1;" parent="1" vertex="1">
          <mxGeometry x="120" y="440" width="120" height="50" as="geometry" />
        </mxCell>
        <mxCell id="kG6o4c0gzeUAghqNb9E0-55" value="Thêm sản phẩm" style="ellipse;whiteSpace=wrap;html=1;" parent="1" vertex="1">
          <mxGeometry x="90" y="510" width="120" height="50" as="geometry" />
        </mxCell>
        <mxCell id="kG6o4c0gzeUAghqNb9E0-56" value="Sửa sản phẩm" style="ellipse;whiteSpace=wrap;html=1;" parent="1" vertex="1">
          <mxGeometry x="130" y="580" width="120" height="50" as="geometry" />
        </mxCell>
        <mxCell id="kG6o4c0gzeUAghqNb9E0-57" value="Xóa sản phẩm" style="ellipse;whiteSpace=wrap;html=1;" parent="1" vertex="1">
          <mxGeometry x="200" y="640" width="120" height="50" as="geometry" />
        </mxCell>
        <mxCell id="kG6o4c0gzeUAghqNb9E0-58" value="Xem thông tin hóa đơn" style="ellipse;whiteSpace=wrap;html=1;" parent="1" vertex="1">
          <mxGeometry x="365" y="710" width="120" height="50" as="geometry" />
        </mxCell>
        <mxCell id="kG6o4c0gzeUAghqNb9E0-59" value="Xem tổng tiền các phương thức" style="ellipse;whiteSpace=wrap;html=1;" parent="1" vertex="1">
          <mxGeometry x="500" y="710" width="120" height="50" as="geometry" />
        </mxCell>
        <mxCell id="kG6o4c0gzeUAghqNb9E0-60" value="&amp;lt;&amp;lt;extend&amp;gt;&amp;gt;" style="html=1;verticalAlign=bottom;labelBackgroundColor=none;endArrow=open;endFill=0;dashed=1;rounded=0;exitX=1;exitY=0.5;exitDx=0;exitDy=0;entryX=0.036;entryY=0.283;entryDx=0;entryDy=0;entryPerimeter=0;" parent="1" source="kG6o4c0gzeUAghqNb9E0-51" target="kG6o4c0gzeUAghqNb9E0-37" edge="1">
          <mxGeometry width="160" relative="1" as="geometry">
            <mxPoint x="400" y="190" as="sourcePoint" />
            <mxPoint x="560" y="190" as="targetPoint" />
          </mxGeometry>
        </mxCell>
        <mxCell id="kG6o4c0gzeUAghqNb9E0-61" value="&amp;lt;&amp;lt;extend&amp;gt;&amp;gt;" style="html=1;verticalAlign=bottom;labelBackgroundColor=none;endArrow=open;endFill=0;dashed=1;rounded=0;entryX=0.375;entryY=0.017;entryDx=0;entryDy=0;entryPerimeter=0;" parent="1" source="kG6o4c0gzeUAghqNb9E0-50" target="kG6o4c0gzeUAghqNb9E0-37" edge="1">
          <mxGeometry width="160" relative="1" as="geometry">
            <mxPoint x="420" y="167.5" as="sourcePoint" />
            <mxPoint x="496" y="242.5" as="targetPoint" />
          </mxGeometry>
        </mxCell>
        <mxCell id="kG6o4c0gzeUAghqNb9E0-63" value="&amp;lt;&amp;lt;extend&amp;gt;&amp;gt;" style="html=1;verticalAlign=bottom;labelBackgroundColor=none;endArrow=open;endFill=0;dashed=1;rounded=0;entryX=0.586;entryY=-0.05;entryDx=0;entryDy=0;entryPerimeter=0;exitX=0.5;exitY=1;exitDx=0;exitDy=0;" parent="1" source="kG6o4c0gzeUAghqNb9E0-49" target="kG6o4c0gzeUAghqNb9E0-37" edge="1">
          <mxGeometry width="160" relative="1" as="geometry">
            <mxPoint x="510" y="170" as="sourcePoint" />
            <mxPoint x="580" y="282" as="targetPoint" />
          </mxGeometry>
        </mxCell>
        <mxCell id="kG6o4c0gzeUAghqNb9E0-64" value="&amp;lt;&amp;lt;extend&amp;gt;&amp;gt;" style="html=1;verticalAlign=bottom;labelBackgroundColor=none;endArrow=open;endFill=0;dashed=1;rounded=0;exitX=0.5;exitY=1;exitDx=0;exitDy=0;entryX=1;entryY=0;entryDx=0;entryDy=0;" parent="1" source="kG6o4c0gzeUAghqNb9E0-48" target="kG6o4c0gzeUAghqNb9E0-37" edge="1">
          <mxGeometry width="160" relative="1" as="geometry">
            <mxPoint x="680" y="220" as="sourcePoint" />
            <mxPoint x="840" y="220" as="targetPoint" />
          </mxGeometry>
        </mxCell>
        <mxCell id="kG6o4c0gzeUAghqNb9E0-65" value="&amp;lt;&amp;lt;extend&amp;gt;&amp;gt;" style="html=1;verticalAlign=bottom;labelBackgroundColor=none;endArrow=open;endFill=0;dashed=1;rounded=0;exitX=1;exitY=0.5;exitDx=0;exitDy=0;entryX=0;entryY=0.5;entryDx=0;entryDy=0;" parent="1" source="kG6o4c0gzeUAghqNb9E0-52" target="kG6o4c0gzeUAghqNb9E0-37" edge="1">
          <mxGeometry width="160" relative="1" as="geometry">
            <mxPoint x="360" y="280" as="sourcePoint" />
            <mxPoint x="520" y="280" as="targetPoint" />
          </mxGeometry>
        </mxCell>
        <mxCell id="kG6o4c0gzeUAghqNb9E0-66" value="&amp;lt;&amp;lt;extend&amp;gt;&amp;gt;" style="html=1;verticalAlign=bottom;labelBackgroundColor=none;endArrow=open;endFill=0;dashed=1;rounded=0;exitX=1;exitY=0.5;exitDx=0;exitDy=0;entryX=0;entryY=1;entryDx=0;entryDy=0;" parent="1" source="kG6o4c0gzeUAghqNb9E0-53" target="kG6o4c0gzeUAghqNb9E0-37" edge="1">
          <mxGeometry width="160" relative="1" as="geometry">
            <mxPoint x="340" y="340" as="sourcePoint" />
            <mxPoint x="500" y="340" as="targetPoint" />
          </mxGeometry>
        </mxCell>
        <mxCell id="kG6o4c0gzeUAghqNb9E0-67" value="&amp;lt;&amp;lt;extend&amp;gt;&amp;gt;" style="html=1;verticalAlign=bottom;labelBackgroundColor=none;endArrow=open;endFill=0;dashed=1;rounded=0;exitX=0.808;exitY=0.137;exitDx=0;exitDy=0;exitPerimeter=0;entryX=0;entryY=0.5;entryDx=0;entryDy=0;" parent="1" source="kG6o4c0gzeUAghqNb9E0-54" target="kG6o4c0gzeUAghqNb9E0-38" edge="1">
          <mxGeometry width="160" relative="1" as="geometry">
            <mxPoint x="280" y="420" as="sourcePoint" />
            <mxPoint x="440" y="420" as="targetPoint" />
          </mxGeometry>
        </mxCell>
        <mxCell id="kG6o4c0gzeUAghqNb9E0-68" value="&amp;lt;&amp;lt;extend&amp;gt;&amp;gt;" style="html=1;verticalAlign=bottom;labelBackgroundColor=none;endArrow=open;endFill=0;dashed=1;rounded=0;exitX=0.981;exitY=0.297;exitDx=0;exitDy=0;exitPerimeter=0;entryX=0.047;entryY=0.737;entryDx=0;entryDy=0;entryPerimeter=0;" parent="1" source="kG6o4c0gzeUAghqNb9E0-55" target="kG6o4c0gzeUAghqNb9E0-38" edge="1">
          <mxGeometry width="160" relative="1" as="geometry">
            <mxPoint x="330" y="490" as="sourcePoint" />
            <mxPoint x="490" y="490" as="targetPoint" />
          </mxGeometry>
        </mxCell>
        <mxCell id="kG6o4c0gzeUAghqNb9E0-69" value="&amp;lt;&amp;lt;extend&amp;gt;&amp;gt;" style="html=1;verticalAlign=bottom;labelBackgroundColor=none;endArrow=open;endFill=0;dashed=1;rounded=0;exitX=1;exitY=0;exitDx=0;exitDy=0;entryX=0;entryY=1;entryDx=0;entryDy=0;" parent="1" source="kG6o4c0gzeUAghqNb9E0-56" target="kG6o4c0gzeUAghqNb9E0-38" edge="1">
          <mxGeometry width="160" relative="1" as="geometry">
            <mxPoint x="330" y="510" as="sourcePoint" />
            <mxPoint x="490" y="510" as="targetPoint" />
          </mxGeometry>
        </mxCell>
        <mxCell id="kG6o4c0gzeUAghqNb9E0-70" value="&amp;lt;&amp;lt;extend&amp;gt;&amp;gt;" style="html=1;verticalAlign=bottom;labelBackgroundColor=none;endArrow=open;endFill=0;dashed=1;rounded=0;exitX=0.753;exitY=-0.01;exitDx=0;exitDy=0;exitPerimeter=0;entryX=0.247;entryY=0.963;entryDx=0;entryDy=0;entryPerimeter=0;" parent="1" source="kG6o4c0gzeUAghqNb9E0-57" target="kG6o4c0gzeUAghqNb9E0-38" edge="1">
          <mxGeometry width="160" relative="1" as="geometry">
            <mxPoint x="360" y="560" as="sourcePoint" />
            <mxPoint x="520" y="560" as="targetPoint" />
          </mxGeometry>
        </mxCell>
        <mxCell id="kG6o4c0gzeUAghqNb9E0-71" value="&amp;lt;&amp;lt;extend&amp;gt;&amp;gt;" style="html=1;verticalAlign=bottom;labelBackgroundColor=none;endArrow=open;endFill=0;dashed=1;rounded=0;exitX=0.5;exitY=0;exitDx=0;exitDy=0;entryX=0.436;entryY=1.07;entryDx=0;entryDy=0;entryPerimeter=0;" parent="1" source="kG6o4c0gzeUAghqNb9E0-58" target="kG6o4c0gzeUAghqNb9E0-39" edge="1">
          <mxGeometry width="160" relative="1" as="geometry">
            <mxPoint x="380" y="610" as="sourcePoint" />
            <mxPoint x="540" y="610" as="targetPoint" />
          </mxGeometry>
        </mxCell>
        <mxCell id="kG6o4c0gzeUAghqNb9E0-72" value="&amp;lt;&amp;lt;extend&amp;gt;&amp;gt;" style="html=1;verticalAlign=bottom;labelBackgroundColor=none;endArrow=open;endFill=0;dashed=1;rounded=0;exitX=0.5;exitY=0;exitDx=0;exitDy=0;entryX=0.5;entryY=1;entryDx=0;entryDy=0;" parent="1" source="kG6o4c0gzeUAghqNb9E0-59" target="kG6o4c0gzeUAghqNb9E0-41" edge="1">
          <mxGeometry width="160" relative="1" as="geometry">
            <mxPoint x="710" y="590" as="sourcePoint" />
            <mxPoint x="870" y="590" as="targetPoint" />
          </mxGeometry>
        </mxCell>
      </root>
    </mxGraphModel>
  </diagram>
</mxfile>
